<svg xmlns="http://www.w3.org/2000/svg" preserveAspectRatio="xMidYMid" width="28.219" height="28.219"><path d="M14.103 28.229c-7.795 0-14.114-6.319-14.114-14.114C-.011 6.32 6.308.001 14.103.001c7.795 0 14.114 6.319 14.114 14.114 0 7.795-6.319 14.114-14.114 14.114zm4.686-13.792c-.453-.491-1.059-.814-1.813-.974v-.064c.524-.221.936-.563 1.233-1.029.3-.465.449-.995.449-1.592 0-.516-.109-.971-.325-1.366-.216-.392-.544-.709-.982-.945-.404-.219-.838-.361-1.301-.428-.462-.071-1.143-.104-2.04-.104H9.689v12.229h4.895c.85 0 1.547-.076 2.097-.23.553-.155 1.058-.41 1.517-.771.39-.303.698-.681.928-1.141.23-.46.345-.995.345-1.604 0-.83-.227-1.49-.682-1.981zm-3.285 3.246c-.317.137-.631.21-.936.221-.306.012-.859.017-1.657.017h-.166v-3.062h.567c.546 0 .984.003 1.309.012.325.008.583.047.768.121.306.108.535.268.69.484.154.213.229.508.229.886 0 .294-.064.558-.193.791-.129.233-.331.409-.611.53zm-.614-5.105c-.224.103-.443.159-.653.171-.211.011-.581.016-1.105.016h-.387v-2.588h.213c.547 0 .959.004 1.237.012.277.008.516.056.717.146.216.092.373.244.474.451.101.207.152.41.152.608 0 .267-.048.503-.141.707-.092.202-.263.361-.507.477z" opacity=".6" fill-rule="evenodd"/></svg>