<svg xmlns="http://www.w3.org/2000/svg" preserveAspectRatio="xMidYMid" width="28.219" height="28.25"><path d="M14.101 28.236c-7.795 0-14.114-6.319-14.114-14.114C-.013 6.327 6.306.008 14.101.008c7.794 0 14.113 6.319 14.113 14.114 0 7.795-6.319 14.114-14.113 14.114zm7.777-19.801c-.633.376-1.334.648-2.08.795-.598-.637-1.449-1.035-2.392-1.035-1.809 0-3.276 1.467-3.276 3.276 0 .257.029.507.085.747-2.722-.137-5.136-1.441-6.752-3.423-.282.484-.444 1.047-.444 1.647 0 1.136.579 2.139 1.458 2.727-.537-.017-1.043-.165-1.484-.41v.041c0 1.587 1.129 2.911 2.627 3.212-.274.075-.564.115-.863.115-.211 0-.416-.02-.616-.059.417 1.302 1.627 2.249 3.06 2.275-1.121.879-2.533 1.403-4.068 1.403-.265 0-.526-.016-.782-.046 1.45.93 3.172 1.472 5.022 1.472 6.026 0 9.321-4.992 9.321-9.321 0-.142-.003-.283-.01-.424.641-.462 1.196-1.039 1.635-1.695-.587.26-1.219.436-1.881.515.676-.405 1.195-1.047 1.44-1.812z" opacity=".56" fill-rule="evenodd"/></svg>