<svg xmlns="http://www.w3.org/2000/svg" preserveAspectRatio="xMidYMid" width="200" height="87.969"><path d="M199.139 87.798h-6.583c-.328 0-.627-.19-.767-.487l-5.175-11.025h-6.945v10.847c0 .468-.38.847-.848.847h-6.332c-.468 0-.847-.379-.847-.847v-35.81c0-.468.379-.847.847-.847h22.085c2.794 0 5.059 2.265 5.059 5.06v16.322c0 2.445-1.982 4.428-4.428 4.428l4.705 10.313c.256.561-.154 1.199-.771 1.199zm-7.533-28.362c0-.913-.74-1.653-1.653-1.653h-10.284v11.184h10.284c.913 0 1.653-.74 1.653-1.653v-7.878zm-26.421 28.435h-24.581c-.496 0-.899-.403-.899-.9V51.266c0-.497.403-.9.899-.9h24.101c.496 0 .899.403.899.9v5.507c0 .497-.403.9-.899.9h-16.88c-.051 0-.093.041-.093.093v7.359c0 .051.042.093.093.093h12.9c.497 0 .9.403.9.899v5.344c0 .496-.403.899-.9.899h-12.993v8.369h17.453c.497 0 .899.402.899.899v5.343c0 .497-.402.9-.899.9zm-30.794-30.239h-9.142v29.433c0 .445-.361.806-.806.806h-6.332c-.445 0-.806-.361-.806-.806V57.632h-9.129c-.445 0-.806-.361-.806-.807v-5.653c0-.445.361-.806.806-.806h26.215c.446 0 .806.361.806.806v5.653c0 .446-.36.807-.806.807zM93.859 87.898c-.16 0-.306-.091-.377-.235l-11.24-22.824c-.197-.4-.798-.26-.798.186v22.452c0 .233-.189.421-.421.421h-7.147c-.232 0-.42-.188-.42-.421V50.814c0-.232.188-.421.42-.421h9.007c.162 0 .31.094.379.24l10.767 22.566c.193.404.8.267.8-.181V50.814c0-.232.188-.421.42-.421h7.179c.233 0 .421.189.421.421v36.663c0 .233-.188.421-.421.421h-8.569zm-33.413 0H41.779c-2.742 0-4.964-2.222-4.964-4.964V51.219c0-.456.369-.826.825-.826h6.445c.456 0 .825.37.825.826v27.992c0 .853.692 1.545 1.546 1.545h9.313c.853 0 1.545-.692 1.545-1.545V51.219c0-.456.37-.826.826-.826h6.445c.456 0 .825.37.825.826v31.715c0 2.742-2.222 4.964-4.964 4.964zm-32.568 0h-6.483c-.445 0-.806-.361-.806-.806V72.717H8.102v14.375c0 .445-.361.806-.806.806H.813c-.445 0-.806-.361-.806-.806V51.2c0-.446.361-.807.806-.807h6.483c.445 0 .806.361.806.807v14.375h12.487V51.2c0-.446.361-.807.806-.807h6.483c.446 0 .807.361.807.807v35.892c0 .445-.361.806-.807.806zM144.655 37.595V.091h8.027v30.362h16.912v7.142h-24.939zm-6.46 0h-24.67c-.472 0-.855-.383-.855-.855V.946c0-.473.383-.855.855-.855h24.189c.473 0 .855.382.855.855v5.596c0 .473-.382.855-.855.855h-17.017v7.546h13.038c.472 0 .855.382.855.855v5.432c0 .472-.383.855-.855.855h-13.038v8.368h17.498c.472 0 .855.383.855.855v5.432c0 .472-.383.855-.855.855zm-30.438 0h-7.274c-.308 0-.59-.172-.731-.445l-5.811-11.257c-.307-.594-1.157-.594-1.463 0L86.666 37.15c-.141.273-.423.445-.731.445h-7.274c-.626 0-1.023-.67-.722-1.219l10.18-18.555-9.013-16.429c-.301-.548.096-1.219.721-1.219h6.87c.304 0 .583.168.726.436l5.156 9.683c.31.582 1.143.582 1.453 0L99.188.609c.143-.268.422-.436.726-.436h6.869c.626 0 1.023.671.722 1.219l-9.109 16.605 10.083 18.379c.301.549-.096 1.219-.722 1.219zm-35.428-.082h-6.285c-.5 0-.905-.406-.905-.906V.914c0-.5.405-.906.905-.906h6.285c.5 0 .905.406.905.906v35.693c0 .5-.405.906-.905.906zm-18.293-10.83h-15.05v10.13c0 .455-.369.823-.824.823h-6.38c-.455 0-.823-.368-.823-.823V.955c0-.455.368-.823.823-.823h22.254c2.714 0 4.914 2.2 4.914 4.914v16.723c0 2.714-2.2 4.914-4.914 4.914zM50.923 9.1c0-.918-.743-1.662-1.661-1.662H38.986v11.926h10.276c.918 0 1.661-.743 1.661-1.661V9.1z" fill-rule="evenodd"/></svg>