<svg xmlns="http://www.w3.org/2000/svg" preserveAspectRatio="xMidYMid" width="28.219" height="28.219"><path d="M14.103 28.229c-7.795 0-14.114-6.319-14.114-14.114C-.011 6.32 6.308.001 14.103.001c7.795 0 14.114 6.319 14.114 14.114 0 7.795-6.319 14.114-14.114 14.114zm7.21-19.634c0-.867-.702-1.569-1.569-1.569H8.656c-.867 0-1.569.702-1.569 1.569l-.001 11.073c0 .867.703 1.569 1.57 1.569h11.088c.867 0 1.569-.702 1.569-1.569V8.595zm-2.088 2.807h-1.677c-.303 0-.549-.246-.549-.55V9.175c0-.304.246-.55.549-.55h1.677c.304 0 .55.246.55.55v1.677c0 .304-.246.55-.55.55zm-5.003 5.312c-1.41 0-2.552-1.144-2.552-2.553 0-1.411 1.142-2.553 2.552-2.553 1.411 0 2.758 1.029 2.758 2.552 0 1.524-1.347 2.554-2.758 2.554zm0 1.877c2.444 0 4.426-1.982 4.426-4.426 0-.384-.049-.758-.141-1.113.794.001 1.241-.001 1.241-.001v6.104c0 .303-.246.55-.55.55H9.246c-.304 0-.55-.247-.55-.55v-6.104s.251.001 1.241.001c-.092.355-.142.729-.142 1.113 0 2.444 1.982 4.426 4.427 4.426z" opacity=".6" fill-rule="evenodd"/></svg>