<svg xmlns="http://www.w3.org/2000/svg" width="101" height="44"><path fill-rule="evenodd" d="M57.007 19.638V.979H61v15.106h8.414v3.553H57.007zm-3.214 0H41.519c-.235 0-.426-.19-.426-.425V1.404c0-.235.191-.425.426-.425h12.035c.235 0 .425.19.425.425v2.785c0 .235-.19.425-.425.425h-8.467v3.754h6.487c.235 0 .425.19.425.425v2.703c0 .235-.19.425-.425.425h-6.487v4.164h8.706c.235 0 .425.19.425.425v2.703c0 .235-.19.425-.425.425zm-15.144 0H35.03c-.153 0-.293-.085-.364-.221l-2.891-5.601c-.152-.295-.575-.295-.728 0l-2.891 5.601c-.07.136-.211.221-.364.221h-3.619c-.311 0-.509-.333-.359-.606L28.879 9.8l-4.485-8.174c-.149-.273.048-.606.36-.606h3.417c.152 0 .291.083.362.217l2.565 4.817c.154.29.569.29.723 0l2.565-4.817c.071-.134.21-.217.361-.217h3.418c.311 0 .509.333.359.606l-4.532 8.262 5.016 9.144c.15.273-.047.606-.359.606zm-17.626-.041h-3.127c-.249 0-.45-.201-.45-.45V1.388c0-.248.201-.45.45-.45h3.127c.249 0 .45.202.45.45v17.759c0 .249-.201.45-.45.45zm-9.101-5.388H4.434v5.04c0 .226-.183.41-.41.41H.85c-.226 0-.41-.184-.41-.41V1.409c0-.226.184-.41.41-.41h11.072c1.35 0 2.445 1.095 2.445 2.445v8.32c0 1.35-1.095 2.445-2.445 2.445zm-1.549-8.748c0-.456-.37-.826-.826-.826H4.434v5.933h5.113c.456 0 .826-.37.826-.827v-4.28z"/><path fill-rule="evenodd" d="MNaN NaNlNaN NaNcNaN NaN NaN NaN NaN NaNlNaN NaN NaN NaN NaN NaNcNaN NaN NaN NaN NaN NaNlNaN NaNcNaN NaN NaN NaN NaN NaNlNaN NaNcNaN NaN NaN NaN NaN NaNlNaN NaNcNaN NaN NaN NaN NaN NaNlNaN NaNcNaN NaN NaN NaN NaN NaNlNaN NaNcNaN NaN NaN NaN NaN NaNzmNaN NaNcNaN NaN NaN NaN NaN NaNlNaN NaN NaN NaN NaN NaNcNaN NaN NaN NaN NaN NaNlNaN NaNzmNaN NaNlNaN NaNcNaN NaN NaN NaN NaN NaNlNaN NaNcNaN NaN NaN NaN NaN NaNlNaN NaNcNaN NaN NaN NaN NaN NaNlNaN NaNcNaN NaN NaN NaN NaN NaNlNaN NaNcNaN NaN NaN NaN NaN NaNlNaN NaNcNaN NaN NaN NaN NaN NaNlNaN NaNcNaN NaN NaN NaN NaN NaNlNaN NaNcNaN NaN NaN NaN NaN NaNlNaN NaN NaN NaN NaN NaNcNaN NaN NaN NaN NaN NaNlNaN NaNcNaN NaN NaN NaN NaN NaNzmNaN NaNlNaN NaN NaN NaNcNaN NaN NaN NaN NaN NaNlNaN NaNcNaN NaN NaN NaN NaN NaNlNaN NaN NaN NaNcNaN NaN NaN NaN NaN NaNlNaN NaNcNaN NaN NaN NaN NaN NaNlNaN NaNcNaN NaN NaN NaN NaN NaNlNaN NaNcNaN NaN NaN NaN NaN NaNzmNaN NaNlNaN NaNcNaN NaN NaN NaN NaN NaNlNaN NaNcNaN NaN NaN NaN NaN NaNlNaN NaNcNaN NaN NaN NaN NaN NaNlNaN NaNcNaN NaN NaN NaN NaN NaNlNaN NaNcNaN NaN NaN NaN NaN NaNlNaN NaNcNaN NaN NaN NaN NaN NaNlNaN NaNcNaN NaN NaN NaN NaN NaNlNaN NaNcNaN NaN NaN NaN NaN NaNlNaN NaNcNaN NaN NaN NaN NaN NaNlNaN NaNcNaN NaN NaN NaN NaN NaNzmNaN NaNlNaN NaNcNaN NaN NaN NaN NaN NaNlNaN NaNcNaN NaN NaN NaN NaN NaNlNaN NaNcNaN NaN NaN NaN NaN NaNlNaN NaNcNaN NaN NaN NaN NaN NaNlNaN NaNcNaN NaN NaN NaN NaN NaNlNaN NaNcNaN NaN NaN NaN NaN NaNlNaN NaNcNaN NaN NaN NaN NaN NaNlNaN NaNcNaN NaN NaN NaN NaN NaNzmNaN NaNlNaN NaNcNaN NaN NaN NaN NaN NaNlNaN NaN NaN NaN NaN NaNcNaN NaN NaN NaN NaN NaNlNaN NaNcNaN NaN NaN NaN NaN NaNlNaN NaNcNaN NaN NaN NaN NaN NaNlNaN NaNcNaN NaN NaN NaN NaN NaNlNaN NaN NaN NaN NaN NaNcNaN NaN NaN NaN NaN NaNlNaN NaNcNaN NaN NaN NaN NaN NaNlNaN NaNcNaN NaN NaN NaN NaN NaNz"/></svg>