<svg xmlns="http://www.w3.org/2000/svg" preserveAspectRatio="xMidYMid" width="107.624" height="36.688"><path d="M103.727 29.188c-.899 2.16-2.074 2.886-3.336 2.886-.363 0-.726-.051-1.089-.138v-1.573c.277.087.571.121.847.121.899 0 1.573-.639 2.057-1.935l.173-.415-3.941-8.365h1.97l2.8 6.256 2.472-6.256h1.935l-3.888 9.419zm-8.054-6.256c0-1.072-.64-1.745-1.642-1.745-.916 0-1.625.604-2.057 1.123.018.19.035.38.035.57v5.185H90.16v-5.133c0-1.072-.64-1.745-1.642-1.745-1.002 0-1.763.725-2.195 1.278v5.6h-1.849v-8.296h1.642v1.037c.449-.501 1.417-1.261 2.765-1.261 1.244 0 2.108.518 2.592 1.33.726-.726 1.694-1.33 2.904-1.33 2.194 0 3.145 1.624 3.145 3.335v5.185h-1.849v-5.133zm-19.322 1.676c.207 1.487 1.659 2.109 3.18 2.109 1.002 0 1.918-.242 2.627-.588v1.59c-.76.364-1.815.57-2.973.57-2.54 0-4.701-1.451-4.701-4.372 0-3.007 2.282-4.372 4.2-4.372 3.301 0 4.442 2.661 3.906 5.063h-6.239zm2.419-3.525c-1.244 0-2.367.743-2.436 2.143h4.597c.104-.726-.346-2.143-2.161-2.143zm-7.742 5.669c-.64.811-1.625 1.537-3.18 1.537-2.506 0-4.113-1.987-4.113-4.372s1.607-4.372 4.113-4.372c1.452 0 2.419.639 2.989 1.296v-4.874h1.85v12.098h-1.659v-1.313zm-.208-3.855c-.397-.898-1.347-1.728-2.644-1.728-1.486 0-2.575 1.124-2.575 2.748s1.089 2.748 2.575 2.748c1.297 0 2.247-.83 2.644-1.746v-2.022zm.017-21.455h1.85V13.54h-1.85V1.442zm-4.554 6.965c0-1.071-.639-1.746-1.642-1.746-.916 0-1.624.605-2.056 1.124.017.19.034.38.034.57v5.185H60.77V8.407c0-1.071-.639-1.746-1.642-1.746-1.002 0-1.763.726-2.195 1.279v5.6h-1.849V5.244h1.642v1.037c.449-.501 1.417-1.261 2.765-1.261 1.244 0 2.109.518 2.592 1.33.726-.726 1.694-1.33 2.904-1.33 2.195 0 3.145 1.624 3.145 3.335v5.185h-1.849V8.407zm-8.494 12.745c-1.227 0-2.246.311-2.99.639v-1.693c.657-.225 1.85-.553 3.18-.553 2.351 0 3.837 1.123 3.837 3.629v2.973c0 .466.277.605.605.605.19 0 .38-.053.553-.104v1.33c-.346.138-.76.208-1.175.208-.761 0-1.365-.294-1.659-.968-.813.657-1.832 1.071-3.129 1.071-1.503 0-2.903-.829-2.903-2.54 0-2.126 1.97-2.782 3.699-2.782.708 0 1.503.103 2.16.241v-.293c0-1.037-.761-1.763-2.178-1.763zm.381 3.111c-1.055 0-2.161.328-2.161 1.365 0 .812.726 1.227 1.556 1.227.881 0 1.745-.329 2.402-.985v-1.4c-.501-.104-1.21-.207-1.797-.207zM47.878 11.017V6.869h-1.486V5.244h1.486V2.739l1.832-.45v2.955h3.007v1.625H49.71v3.802c0 1.089.501 1.452 1.573 1.452.605 0 1.158-.121 1.676-.329v1.591c-.622.224-1.417.362-2.229.362-1.608 0-2.852-.795-2.852-2.73zm2.428 8.528c.933 0 1.832.207 2.558.639v1.694c-.605-.432-1.452-.691-2.299-.691-1.469 0-2.955.777-2.955 2.73 0 1.884 1.434 2.731 2.921 2.731.881 0 1.763-.26 2.419-.64v1.711c-.795.38-1.693.57-2.748.57-2.212 0-4.476-1.348-4.476-4.303 0-3.093 2.368-4.441 4.58-4.441zm-8.175 7.673c-.812.657-1.831 1.071-3.128 1.071-1.503 0-2.903-.829-2.903-2.54 0-2.126 1.97-2.782 3.698-2.782.709 0 1.504.103 2.161.241v-.293c0-1.037-.761-1.763-2.178-1.763-1.227 0-2.247.311-2.99.639v-1.693c.657-.225 1.849-.553 3.18-.553 2.35 0 3.837 1.123 3.837 3.629v2.973c0 .466.277.605.605.605.19 0 .38-.053.553-.104v1.33c-.346.138-.761.208-1.175.208-.761 0-1.366-.294-1.66-.968zm-.172-2.748c-.502-.104-1.21-.207-1.798-.207-1.054 0-2.16.328-2.16 1.365 0 .812.726 1.227 1.555 1.227.882 0 1.746-.329 2.403-.985v-1.4zm.838-15.821c0-1.348-.83-1.988-1.936-1.988-1.054 0-1.849.709-2.316 1.383v5.496h-1.849V1.442h1.849V6.16c.605-.622 1.556-1.14 2.679-1.14 2.091 0 3.422 1.417 3.422 3.387v5.133h-1.849V8.649zM-.001 28.065V1.518L14.483 0l.152.015 14.332 1.503v26.547l-14.484 8.618-14.484-8.618zM27.072 3.224l-12.589-1.32-12.589 1.32v9.959L14.412 5.73v-.002l.002.001.001-.001v.002l12.657 7.462V3.224zM14.446 18.236l3.19 1.879.024-.014.997-.667-4.224-2.512.013-1.312 5.35 3.183.921-.543.14-.082.057-.034-6.481-3.854.013-1.312 7.582 4.51 1.59-.936 3.444-2.03-12.65-7.372v-.001L1.921 14.647l12.473 7.415 2.133-1.281-2.094-1.233.013-1.312zm12.626-2.312l-3.884 2.319v4.288l.011-.006v1.319l-8.716 5.215L5.85 23.87l.012-1.312 8.631 5.134-.022-1.388-8.633-5.189.013-1.313 8.599 5.118-.021-1.352-12.535-7.461v10.881l12.589 7.491 12.589-7.491V15.924z" fill-rule="evenodd"/></svg>