<svg xmlns="http://www.w3.org/2000/svg" preserveAspectRatio="xMidYMid" width="68.97" height="76.719"><circle cx="34.485" cy="42.25" r="34.485" fill="#188b5a" opacity=".5"/><path d="M53.141 2.976V1.153c0-.631-.512-1.143-1.143-1.143H17.734c-.631 0-1.143.512-1.143 1.143v1.823c0 .632-.512 1.144-1.143 1.144h-4.061c-2.305 0-4.174 1.868-4.174 4.173v12.098c0 .048.003.094.009.142.123.931 1.64 10.647 11.997 14.181.237.081.442.235.584.442 2.384 3.465 5.932 6.064 10.081 7.237.482.137.825.563.825 1.064v8.258c0 .5-.338.938-.823 1.064L20.604 55.2c-.484.127-.822.564-.822 1.065v4.877c0 .631.512 1.143 1.143 1.143h27.882c.631 0 1.143-.512 1.143-1.143v-4.878c0-.5-.338-.937-.822-1.064l-9.282-2.422c-.485-.126-.822-.563-.822-1.064v-8.257c0-.501.342-.927.824-1.064 4.149-1.173 7.697-3.772 10.081-7.237.142-.207.347-.361.584-.442 10.357-3.535 11.874-13.25 11.997-14.181.006-.048.009-.094.009-.142V8.293c0-2.305-1.869-4.173-4.173-4.173h-4.062c-.631 0-1.143-.512-1.143-1.144zM11.274 20.091V9.884c0-.941.763-1.703 1.704-1.703h2.47c.631 0 1.143.512 1.143 1.143v15.488c0 .464.018.925.052 1.381.082 1.073-1.244 1.665-1.968.868-2.527-2.78-3.23-5.892-3.385-6.783-.011-.063-.016-.123-.016-.187zm29.049 7.279l-5.263-2.749c-.108-.056-.237-.056-.344.001l-5.248 2.776c-.271.144-.589-.086-.538-.389l.988-5.854c.02-.12-.02-.243-.108-.327l-4.262-4.133c-.221-.214-.1-.587.203-.632l5.874-.87c.121-.017.225-.094.279-.203l2.613-5.331c.135-.275.527-.276.664-.002l2.641 5.317c.055.109.159.185.28.202l5.878.839c.304.043.426.416.207.631l-4.241 4.155c-.087.085-.126.208-.105.328l1.018 5.849c.053.303-.264.534-.536.392zm18.119-7.092c-.154.891-.858 4.003-3.385 6.783-.724.797-2.05.205-1.968-.869.034-.455.052-.916.052-1.38V9.324c0-.631.512-1.143 1.143-1.143h2.471c.94 0 1.703.762 1.703 1.703v10.207c0 .064-.005.124-.016.187z" fill="#fff" fill-rule="evenodd"/></svg>