<svg xmlns="http://www.w3.org/2000/svg" width="29" height="32"><path fill-rule="evenodd" fill="#188B5A" d="M26.318 14.528c-.001 0-.001.001-.002.002-.78-1.647-1.903-3.099-3.278-4.264 2.015-1.861 4.258-2.63 5.233-1.714 1.074 1.009.2 3.685-1.953 5.976zm-7.566-9.45c-.026.905-.208 1.313-.512 2.559-1.085-.301-2.227-.463-3.408-.463-1.18 0-2.323.162-3.407.463-.329-1.345-.517-.598-.517-1.672 0-.289.014-.574.041-.852-.432-.336-.711-.859-.711-1.448 0-.994.79-1.801 1.776-1.832C12.727.718 13.726.024 14.832.024c1.107 0 2.105.694 2.819 1.809.986.031 1.776.838 1.776 1.832 0 .571-.266 1.076-.675 1.413zm-6.68-2.569c-.638 0-1.155.517-1.155 1.156 0 .638.517 1.156 1.155 1.156.639 0 1.156-.518 1.156-1.156 0-.639-.517-1.156-1.156-1.156zm6.667 2.581c-.008.007-.014.016-.023.023.009.098.017.056.023-.023zm-1.147-2.581c-.638 0-1.156.517-1.156 1.156 0 .638.518 1.156 1.156 1.156.639 0 1.156-.518 1.156-1.156 0-.639-.517-1.156-1.156-1.156zM3.349 14.53c-.001-.001-.001-.002-.002-.002C1.194 12.237.319 9.561 1.394 8.552c.974-.916 3.217-.147 5.233 1.714-1.375 1.165-2.498 2.617-3.278 4.264zm3.206 15.058c-1.997 1.813-4.198 2.555-5.161 1.65-1.068-1.004-.21-3.654 1.916-5.936.768 1.652 1.88 3.112 3.245 4.286zM4.89 26.28l4.754-2.745 4.804 2.774v5.423c-4.02-.129-7.531-2.271-9.558-5.452zm-.442-.754c-.891-1.658-1.397-3.554-1.397-5.569 0-1.964.482-3.817 1.332-5.446l4.768 2.753v5.547l-4.703 2.715zm10-17.343v5.423L9.644 16.38 4.89 13.635c2.027-3.181 5.538-5.323 9.558-5.452zm-4.42 9.081l4.804-2.774 4.804 2.774v5.547l-4.804 2.774-4.804-2.774v-5.547zm14.776 8.969c-2.004 3.178-5.484 5.33-9.478 5.495v-5.419l4.804-2.774 4.674 2.698zm-9.478-12.627V8.187c3.994.165 7.474 2.317 9.478 5.494L20.13 16.38l-4.804-2.774zm11.288 6.351c0 2.015-.506 3.911-1.398 5.569l-4.702-2.715v-5.547l4.767-2.753c.851 1.629 1.333 3.482 1.333 5.446zm-.259 5.345c2.125 2.282 2.984 4.932 1.916 5.936-.963.905-3.165.163-5.161-1.65 1.365-1.174 2.477-2.634 3.245-4.286z"/></svg>